<svg xmlns="http://www.w3.org/2000/svg" version="1.1" xmlns:xlink="http://www.w3.org/1999/xlink" width="1080" height="1080"><svg id="SvgjsSvg1001" data-name="Layer 1" xmlns="http://www.w3.org/2000/svg" viewBox="0 0 1080 1080">
  <defs>
    <style>
      .cls-1 {
        fill: #0a0a0f;
      }

      .cls-2 {
        fill: #fff;
      }
    </style>
  </defs>
  <rect class="cls-1" x="12" y="12" width="1056" height="1056" rx="160" ry="160" stroke="rgba(255,255,255,0.22)" stroke-width="24"></rect>
  <path class="cls-2" d="M109.41,598.44c-13.9-12.37-19.38-26.67-16.78-42.79,1.2-7.56,3.42-14.18,6.8-19.84,16.54,5.82,33.16,11.48,49.86,17.01-1.77,2.83-3.01,5.78-3.42,8.53-1.57,10.83,10.64,19.24,31.13,21.82,18.35,2.26,29.49-2.67,30.64-12.53.95-7.84-6.35-13.54-16.21-16.04-8.16-2.1-16.33-4.24-24.46-6.39-45.94-12.49-64.21-33.66-59.26-64.05,2.47-15.36,11.13-27.44,26.06-36.33,14.97-8.89,33.82-11.64,57.16-8.69,49.44,6.18,73.65,28.21,72.66,68.42-17.32.28-34.64.4-52,.36-.16-16.73-6.93-26.95-27.71-29.58-12.62-1.62-23.13,2.63-24.25,10.47-1.11,7.84,5.65,13.66,20.29,17.58,8.08,2.22,16.21,4.4,24.33,6.59,42.64,11.11,59.84,29.42,57.03,58.15-1.77,17.74-10.6,31.56-26.47,41.46-16.12,9.86-37.4,13.21-63.47,9.94-27.47-3.43-48.13-11.52-61.94-24.12v.04Z"></path>
  <path class="cls-2" d="M358.54,639.91c-28.18-1.71-49.22-10.08-63.15-24.64-13.93-14.56-19.44-34.44-17.16-59.2,3.19-34.64,6.41-69.32,9.6-103.96,16.87,1.54,33.74,2.93,50.61,4.15-2.37,32.16-4.7,64.32-7.07,96.44-1.84,24.8,8.54,39.52,30.02,40.82,21.49,1.3,33.58-12.03,34.8-36.88,1.59-32.2,3.19-64.4,4.82-96.6,16.91.81,33.78,1.5,50.69,2.03-1.06,34.8-2.12,69.56-3.19,104.37-.78,24.84-8.66,43.91-24.26,56.67-15.6,12.73-37.5,18.5-65.68,16.79h-.04Z"></path>
  <path class="cls-2" d="M472.88,641.9c1.29-59.33,2.58-118.7,3.91-178.03,27.87.57,55.7.73,83.57.49,20.3-.2,36.98,5.12,50.83,15.76,13.56,10.92,20.8,25.75,21.51,44.71.67,18.92-5.53,34.32-18.93,45.69-13.64,11.66-30.95,17.67-52.21,17.87-11.11.08-22.26.12-33.36.12-.04,18.03-.08,36.06-.12,54.05-18.39-.04-36.73-.24-55.12-.65h-.08ZM528.25,545.45c8.32,0,16.68,0,25-.04,16.31-.12,24.34-6.66,24.17-19.21-.21-12.59-8.61-18.8-25.21-18.72-7.95.04-15.89.08-23.84.04,0,12.63-.04,25.3-.08,37.93h-.04Z"></path>
  <path class="cls-2" d="M654.17,640.16c-2.45-59.74-4.86-119.43-7.31-179.17,44.84-1.84,89.64-4.78,134.36-8.87,1.31,14.47,2.66,28.95,3.96,43.42-28.3,2.58-56.69,4.74-85.03,6.42.49,7.89.94,15.78,1.43,23.67,23.65-1.43,47.33-3.15,70.94-5.15,1.22,14.47,2.49,28.95,3.72,43.42-24.01,2.04-48.03,3.8-72.08,5.27.49,8.26.98,16.48,1.47,24.74,30.06-1.8,60.08-4.09,90.05-6.83,1.35,14.47,2.65,28.95,4,43.42-48.43,4.46-96.95,7.69-145.51,9.69v-.04Z"></path>
  <path class="cls-2" d="M980.35,558.29c2.49,15.28,4.93,30.57,7.41,45.85-4.51,1.99-9.94,3.62-15.77,4.47-18.88,2.8-35.28,1.46-48.69-3.98-13.75-5.41-26.37-18.05-37.43-37.64-.95-1.63-1.9-3.21-2.82-4.84-5.09.61-10.18,1.22-15.28,1.83,2.28,18.78,4.51,37.52,6.79,56.3-18.18,2.11-36.39,4.06-54.61,5.81-5.96-59.14-11.92-118.24-17.93-177.38,28.86-2.8,57.63-6.06,86.41-9.8,20.08-2.6,37.47.37,52.5,9.31,14.74,8.98,23.77,22.84,26.79,41.62,4.14,25.57-7.37,44.83-31.34,55.48,15.32,15.73,24.22,16.75,36.15,14.67,2.44-.37,4.89-1.02,7.82-1.71ZM858.34,486.1c1.41,11.79,2.86,23.62,4.27,35.4,9.56-1.1,19.17-2.28,28.73-3.5,16.11-2.03,23.35-9.02,21.65-20.93-1.66-11.71-10.68-16.38-27.08-14.31-9.19,1.14-18.38,2.28-27.58,3.33Z"></path>
</svg><style>@media (prefers-color-scheme: light) { :root { filter: none; } }
@media (prefers-color-scheme: dark) { :root { filter: none; } }
</style></svg>